<?xml version="1.0" standalone="no"?><!DOCTYPE svg PUBLIC "-//W3C//DTD SVG 1.1//EN" "http://www.w3.org/Graphics/SVG/1.1/DTD/svg11.dtd"><svg t="1595560619730" class="icon" viewBox="0 0 1024 1024" version="1.1" xmlns="http://www.w3.org/2000/svg" p-id="7046" xmlns:xlink="http://www.w3.org/1999/xlink" width="200" height="200"><defs><style type="text/css"></style></defs><path d="M508.017 760.8q-103.105-103.105-413.3-413.3-6.169-6.169-13.219-6.169-7.050 0-12.337 6.169-6.169 6.169-6.169 12.337 0 6.169 6.169 13.219 144.523 144.523 432.687 432.687 6.169 6.169 13.219 6.169 6.169 0 12.337-6.169 0.881-0.881 1.762-1.762 107.511-107.511 431.806-430.924 6.169-6.169 6.169-12.337 0-7.050-6.169-13.219-6.169-6.169-13.219-6.169-6.169 0-12.337 6.169-138.354 137.473-415.062 413.3-6.169 6.169-12.337 0z" p-id="7047" fill="#ffffff"></path></svg>