<?xml version="1.0" standalone="no"?><!DOCTYPE svg PUBLIC "-//W3C//DTD SVG 1.1//EN" "http://www.w3.org/Graphics/SVG/1.1/DTD/svg11.dtd"><svg t="1595559038776" class="icon" viewBox="0 0 1024 1024" version="1.1" xmlns="http://www.w3.org/2000/svg" p-id="3659" xmlns:xlink="http://www.w3.org/1999/xlink" width="200" height="200"><defs><style type="text/css"></style></defs><path d="M146.285714 237.714286h731.428572a18.285714 18.285714 0 0 1 18.285714 18.285714v512a18.285714 18.285714 0 0 1-18.285714 18.285714H146.285714a18.285714 18.285714 0 0 1-18.285714-18.285714V256a18.285714 18.285714 0 0 1 18.285714-18.285714z m18.285715 36.571428v475.428572h694.857142v-475.428572h-694.857142z m347.428571 251.428572L793.6 314.514286a18.285714 18.285714 0 0 1 21.942857 29.257143l-292.571428 219.428571a18.285714 18.285714 0 0 1-21.942858 0l-292.571428-219.428571a18.285714 18.285714 0 0 1 21.942857-29.257143l281.6 211.2z" p-id="3660" fill="#cdcdcd"></path></svg>